<svg id="SvgjsSvg1006" width="1050" height="889" xmlns="http://www.w3.org/2000/svg" version="1.1" xmlns:xlink="http://www.w3.org/1999/xlink" xmlns:svgjs="http://svgjs.com/svgjs"><defs id="SvgjsDefs1007"><marker id="SvgjsMarker1046" markerWidth="16" markerHeight="12" refX="16" refY="6" viewBox="0 0 16 12" orient="auto" markerUnits="userSpaceOnUse" stroke-dasharray="0,0"><path id="SvgjsPath1047" d="M0,2 L14,6 L0,11 L0,2" fill="#323232" stroke="#323232" stroke-width="2"></path></marker><marker id="SvgjsMarker1074" markerWidth="16" markerHeight="12" refX="16" refY="6" viewBox="0 0 16 12" orient="auto" markerUnits="userSpaceOnUse" stroke-dasharray="0,0"><path id="SvgjsPath1075" d="M0,2 L14,6 L0,11 L0,2" fill="#323232" stroke="#323232" stroke-width="2"></path></marker><marker id="SvgjsMarker1088" markerWidth="16" markerHeight="12" refX="16" refY="6" viewBox="0 0 16 12" orient="auto" markerUnits="userSpaceOnUse" stroke-dasharray="0,0"><path id="SvgjsPath1089" d="M0,2 L14,6 L0,11 L0,2" fill="#323232" stroke="#323232" stroke-width="2"></path></marker><marker id="SvgjsMarker1102" markerWidth="16" markerHeight="12" refX="16" refY="6" viewBox="0 0 16 12" orient="auto" markerUnits="userSpaceOnUse" stroke-dasharray="0,0"><path id="SvgjsPath1103" d="M0,2 L14,6 L0,11 L0,2" fill="#323232" stroke="#323232" stroke-width="2"></path></marker><marker id="SvgjsMarker1116" markerWidth="16" markerHeight="12" refX="16" refY="6" viewBox="0 0 16 12" orient="auto" markerUnits="userSpaceOnUse" stroke-dasharray="0,0"><path id="SvgjsPath1117" d="M0,2 L14,6 L0,11 L0,2" fill="#323232" stroke="#323232" stroke-width="2"></path></marker></defs><g id="SvgjsG1008" transform="translate(275,115)"><path id="SvgjsPath1009" d="M 0 0L 250 0L 250 540L 0 540Z" stroke="rgba(50,50,50,1)" stroke-width="2" fill="none"></path><path id="SvgjsPath1010" d="M 0 0L 250 0L 250 40L 0 40Z" stroke="rgba(50,50,50,1)" stroke-width="2" fill-opacity="1" fill="#ffffff"></path><g id="SvgjsG1011"><text id="SvgjsText1012" font-family="微软雅黑" text-anchor="middle" font-size="16px" width="230px" fill="#323232" font-weight="400" align="middle" anchor="middle" family="微软雅黑" size="16px" weight="400" font-style="" opacity="1" y="7.6" transform="rotate(0)"><tspan id="SvgjsTspan1013" dy="20" x="125"><tspan id="SvgjsTspan1014" style="text-decoration:;">batch-engine</tspan></tspan></text></g></g><g id="SvgjsG1015" transform="translate(525,115)"><path id="SvgjsPath1016" d="M 0 0L 250 0L 250 540L 0 540Z" stroke="rgba(50,50,50,1)" stroke-width="2" fill="none"></path><path id="SvgjsPath1017" d="M 0 0L 250 0L 250 40L 0 40Z" stroke="rgba(50,50,50,1)" stroke-width="2" fill-opacity="1" fill="#ffffff"></path><g id="SvgjsG1018"><text id="SvgjsText1019" font-family="微软雅黑" text-anchor="middle" font-size="16px" width="230px" fill="#323232" font-weight="400" align="middle" anchor="middle" family="微软雅黑" size="16px" weight="400" font-style="" opacity="1" y="7.6" transform="rotate(0)"><tspan id="SvgjsTspan1020" dy="20" x="125"><tspan id="SvgjsTspan1021" style="text-decoration:;">psp</tspan></tspan></text></g></g><g id="SvgjsG1022" transform="translate(25,115)"><path id="SvgjsPath1023" d="M 0 0L 250 0L 250 540L 0 540Z" stroke="rgba(50,50,50,1)" stroke-width="2" fill="none"></path><path id="SvgjsPath1024" d="M 0 0L 250 0L 250 40L 0 40Z" stroke="rgba(50,50,50,1)" stroke-width="2" fill-opacity="1" fill="#ffffff"></path><g id="SvgjsG1025"><text id="SvgjsText1026" font-family="微软雅黑" text-anchor="middle" font-size="16px" width="230px" fill="#323232" font-weight="400" align="middle" anchor="middle" family="微软雅黑" size="16px" weight="400" font-style="" opacity="1" y="7.6" transform="rotate(0)"><tspan id="SvgjsTspan1027" dy="20" x="125"><tspan id="SvgjsTspan1028" style="text-decoration:;">batch-manage</tspan></tspan></text></g></g><g id="SvgjsG1029" transform="translate(775,115)"><path id="SvgjsPath1030" d="M 0 0L 250 0L 250 540L 0 540Z" stroke="rgba(50,50,50,1)" stroke-width="2" fill="none"></path><path id="SvgjsPath1031" d="M 0 0L 250 0L 250 40L 0 40Z" stroke="rgba(50,50,50,1)" stroke-width="2" fill-opacity="1" fill="#ffffff"></path><g id="SvgjsG1032"><text id="SvgjsText1033" font-family="微软雅黑" text-anchor="middle" font-size="16px" width="230px" fill="#323232" font-weight="400" align="middle" anchor="middle" family="微软雅黑" size="16px" weight="400" font-style="" opacity="1" y="7.6" transform="rotate(0)"><tspan id="SvgjsTspan1034" dy="20" x="125"><tspan id="SvgjsTspan1035" style="text-decoration:;">打印服务器</tspan></tspan></text></g></g><g id="SvgjsG1036" transform="translate(88,202)"><path id="SvgjsPath1037" d="M 0 0L 100 0L 100 70L 0 70Z" stroke="rgba(50,50,50,1)" stroke-width="2" fill-opacity="1" fill="#ffffff"></path><g id="SvgjsG1038"><text id="SvgjsText1039" font-family="微软雅黑" text-anchor="middle" font-size="13px" width="80px" fill="#323232" font-weight="400" align="middle" anchor="middle" family="微软雅黑" size="13px" weight="400" font-style="" opacity="1" y="17.05" transform="rotate(0)"><tspan id="SvgjsTspan1040" dy="16" x="50"><tspan id="SvgjsTspan1041" style="text-decoration:;">manage</tspan></tspan><tspan id="SvgjsTspan1042" dy="16" x="50"><tspan id="SvgjsTspan1043" style="text-decoration:;">批处理管理</tspan></tspan></text></g></g><g id="SvgjsG1044"><path id="SvgjsPath1045" d="M188 237L270 237L270 237L354 237" stroke="#323232" stroke-width="2" fill="none" marker-end="url(#SvgjsMarker1046)"></path><rect id="SvgjsRect1048" width="80" height="16" x="231" y="229.00000000000003" fill="#ffffff"></rect><text id="SvgjsText1049" font-family="微软雅黑" text-anchor="middle" font-size="13px" width="80px" fill="#323232" font-weight="400" align="top" anchor="middle" family="微软雅黑" size="13px" weight="400" font-style="" opacity="1" y="227.05000000000004" transform="rotate(0)"><tspan id="SvgjsTspan1050" dy="16" x="271"><tspan id="SvgjsTspan1051" style="text-decoration:;">①servlet调用</tspan></tspan></text></g><g id="SvgjsG1052" transform="translate(358,202)"><path id="SvgjsPath1053" d="M 0 0L 100 0L 100 70L 0 70Z" stroke="rgba(50,50,50,1)" stroke-width="2" fill-opacity="1" fill="#ffffff"></path><g id="SvgjsG1054"><text id="SvgjsText1055" font-family="微软雅黑" text-anchor="middle" font-size="13px" width="80px" fill="#323232" font-weight="400" align="middle" anchor="middle" family="微软雅黑" size="13px" weight="400" font-style="" opacity="1" y="25.05" transform="rotate(0)"><tspan id="SvgjsTspan1056" dy="16" x="50"><tspan id="SvgjsTspan1057" style="text-decoration:;">部署定时任务</tspan></tspan></text></g></g><g id="SvgjsG1058" transform="translate(88,343)"><path id="SvgjsPath1059" d="M 0 0L 100 0L 100 70L 0 70Z" stroke="rgba(50,50,50,1)" stroke-width="2" fill-opacity="1" fill="#ffffff"></path><g id="SvgjsG1060"><text id="SvgjsText1061" font-family="微软雅黑" text-anchor="middle" font-size="13px" width="80px" fill="#323232" font-weight="400" align="middle" anchor="middle" family="微软雅黑" size="13px" weight="400" font-style="" opacity="1" y="17.05" transform="rotate(0)"><tspan id="SvgjsTspan1062" dy="16" x="50"><tspan id="SvgjsTspan1063" style="text-decoration:;">print打印批</tspan></tspan><tspan id="SvgjsTspan1064" dy="16" x="50"><tspan id="SvgjsTspan1065" style="text-decoration:;">处理</tspan></tspan></text></g></g><g id="SvgjsG1066" transform="translate(600,477)"><path id="SvgjsPath1067" d="M 0 0L 100 0L 100 70L 0 70Z" stroke="rgba(50,50,50,1)" stroke-width="2" fill-opacity="1" fill="#ffffff"></path><g id="SvgjsG1068"><text id="SvgjsText1069" font-family="微软雅黑" text-anchor="middle" font-size="13px" width="80px" fill="#323232" font-weight="400" align="middle" anchor="middle" family="微软雅黑" size="13px" weight="400" font-style="" opacity="1" y="25.05" transform="rotate(0)"><tspan id="SvgjsTspan1070" dy="16" x="50"><tspan id="SvgjsTspan1071" style="text-decoration:;">打印平台</tspan></tspan></text></g></g><g id="SvgjsG1072"><path id="SvgjsPath1073" d="M138 413L138 512L600 512" stroke="#323232" stroke-width="2" fill="none" marker-end="url(#SvgjsMarker1074)"></path><rect id="SvgjsRect1076" width="157" height="16" x="266.5" y="504" fill="#ffffff"></rect><text id="SvgjsText1077" font-family="微软雅黑" text-anchor="middle" font-size="13px" width="157px" fill="#323232" font-weight="400" align="top" anchor="middle" family="微软雅黑" size="13px" weight="400" font-style="" opacity="1" y="502.05" transform="rotate(0)"><tspan id="SvgjsTspan1078" dy="16" x="345"><tspan id="SvgjsTspan1079" style="text-decoration:;">③传递PolicyPrintReqDTO</tspan></tspan></text></g><g id="SvgjsG1080" transform="translate(25,713)"><path id="SvgjsPath1081" d="M 0 0L 454 0L 454 24L 0 24Z" stroke="none" fill="none"></path><g id="SvgjsG1082"><text id="SvgjsText1083" font-family="微软雅黑" text-anchor="start" font-size="13px" width="454px" fill="#323232" font-weight="700" align="middle" anchor="start" family="微软雅黑" size="13px" weight="700" font-style="" opacity="1" y="2.05" transform="rotate(0)"><tspan id="SvgjsTspan1084" dy="16" x="0"><tspan id="SvgjsTspan1085" style="text-decoration:;">①调用servlet url：http://ip:port/batch/BatchInitServlet</tspan></tspan></text></g></g><g id="SvgjsG1086"><path id="SvgjsPath1087" d="M408 272L408 378L188 378" stroke="#323232" stroke-width="2" fill="none" marker-end="url(#SvgjsMarker1088)"></path><rect id="SvgjsRect1090" width="130" height="16" x="244" y="370" fill="#ffffff"></rect><text id="SvgjsText1091" font-family="微软雅黑" text-anchor="middle" font-size="13px" width="130px" fill="#323232" font-weight="400" align="top" anchor="middle" family="微软雅黑" size="13px" weight="400" font-style="" opacity="1" y="368.05" transform="rotate(0)"><tspan id="SvgjsTspan1092" dy="16" x="309"><tspan id="SvgjsTspan1093" style="text-decoration:;">②定时任务执行批处理</tspan></tspan></text></g><g id="SvgjsG1094" transform="translate(600,343)"><path id="SvgjsPath1095" d="M 0 0L 100 0L 100 70L 0 70Z" stroke="rgba(50,50,50,1)" stroke-width="2" fill-opacity="1" fill="#ffffff"></path><g id="SvgjsG1096"><text id="SvgjsText1097" font-family="微软雅黑" text-anchor="middle" font-size="13px" width="80px" fill="#323232" font-weight="400" align="middle" anchor="middle" family="微软雅黑" size="13px" weight="400" font-style="" opacity="1" y="25.05" transform="rotate(0)"><tspan id="SvgjsTspan1098" dy="16" x="50"><tspan id="SvgjsTspan1099" style="text-decoration:;">组装xml</tspan></tspan></text></g></g><g id="SvgjsG1100"><path id="SvgjsPath1101" d="M650 477L650 445L650 445L650 413" stroke="#323232" stroke-width="2" fill="none" marker-end="url(#SvgjsMarker1102)"></path><rect id="SvgjsRect1104" width="61" height="16" x="619.5" y="437" fill="#ffffff"></rect><text id="SvgjsText1105" font-family="微软雅黑" text-anchor="middle" font-size="13px" width="61px" fill="#323232" font-weight="400" align="top" anchor="middle" family="微软雅黑" size="13px" weight="400" font-style="" opacity="1" y="435.05" transform="rotate(0)"><tspan id="SvgjsTspan1106" dy="16" x="650"><tspan id="SvgjsTspan1107" style="text-decoration:;">④组装xml</tspan></tspan></text></g><g id="SvgjsG1108" transform="translate(850,343)"><path id="SvgjsPath1109" d="M 0 0L 100 0L 100 70L 0 70Z" stroke="rgba(50,50,50,1)" stroke-width="2" fill-opacity="1" fill="#ffffff"></path><g id="SvgjsG1110"><text id="SvgjsText1111" font-family="微软雅黑" text-anchor="middle" font-size="13px" width="80px" fill="#323232" font-weight="400" align="middle" anchor="middle" family="微软雅黑" size="13px" weight="400" font-style="" opacity="1" y="25.05" transform="rotate(0)"><tspan id="SvgjsTspan1112" dy="16" x="50"><tspan id="SvgjsTspan1113" style="text-decoration:;">产生pdf</tspan></tspan></text></g></g><g id="SvgjsG1114"><path id="SvgjsPath1115" d="M700 378L775 378L775 378L850 378" stroke="#323232" stroke-width="2" fill="none" marker-end="url(#SvgjsMarker1116)"></path><rect id="SvgjsRect1118" width="57" height="16" x="746.5" y="370" fill="#ffffff"></rect><text id="SvgjsText1119" font-family="微软雅黑" text-anchor="middle" font-size="13px" width="57px" fill="#323232" font-weight="400" align="top" anchor="middle" family="微软雅黑" size="13px" weight="400" font-style="" opacity="1" y="368.05" transform="rotate(0)"><tspan id="SvgjsTspan1120" dy="16" x="775"><tspan id="SvgjsTspan1121" style="text-decoration:;">⑤ftp上传</tspan></tspan></text></g><g id="SvgjsG1122" transform="translate(381,25)"><path id="SvgjsPath1123" d="M 0 0L 292 0L 292 65L 0 65Z" stroke="none" fill="none"></path><g id="SvgjsG1124"><text id="SvgjsText1125" font-family="微软雅黑" text-anchor="middle" font-size="25px" width="292px" fill="#000000" font-weight="700" align="middle" anchor="middle" family="微软雅黑" size="25px" weight="700" font-style="" opacity="1" y="11.25" transform="rotate(0)"><tspan id="SvgjsTspan1126" dy="31" x="146"><tspan id="SvgjsTspan1127" style="text-decoration:;">打印批处理流程</tspan></tspan></text></g></g><g id="SvgjsG1128" transform="translate(25,744)"><path id="SvgjsPath1129" d="M 0 0L 454 0L 454 24L 0 24Z" stroke="none" fill="none"></path><g id="SvgjsG1130"><text id="SvgjsText1131" font-family="微软雅黑" text-anchor="start" font-size="13px" width="454px" fill="#323232" font-weight="700" align="middle" anchor="start" family="微软雅黑" size="13px" weight="700" font-style="" opacity="1" y="2.05" transform="rotate(0)"><tspan id="SvgjsTspan1132" dy="16" x="0"><tspan id="SvgjsTspan1133" style="text-decoration:;">②定时任务中执行批处理调用，</tspan></tspan></text></g></g><g id="SvgjsG1134" transform="translate(25,777)"><path id="SvgjsPath1135" d="M 0 0L 454 0L 454 24L 0 24Z" stroke="none" fill="none"></path><g id="SvgjsG1136"><text id="SvgjsText1137" font-family="微软雅黑" text-anchor="start" font-size="13px" width="454px" fill="#323232" font-weight="700" align="middle" anchor="start" family="微软雅黑" size="13px" weight="700" font-style="" opacity="1" y="2.05" transform="rotate(0)"><tspan id="SvgjsTspan1138" dy="16" x="0"><tspan id="SvgjsTspan1139" style="text-decoration:;">③DTO包含：包含保单号、打印类型、系统类型、交易流水号</tspan></tspan></text></g></g><g id="SvgjsG1140" transform="translate(25,809)"><path id="SvgjsPath1141" d="M 0 0L 454 0L 454 24L 0 24Z" stroke="none" fill="none"></path><g id="SvgjsG1142"><text id="SvgjsText1143" font-family="微软雅黑" text-anchor="start" font-size="13px" width="454px" fill="#323232" font-weight="700" align="middle" anchor="start" family="微软雅黑" size="13px" weight="700" font-style="" opacity="1" y="2.05" transform="rotate(0)"><tspan id="SvgjsTspan1144" dy="16" x="0"><tspan id="SvgjsTspan1145" style="text-decoration:;">④校验、加载mao、记录日志等</tspan></tspan></text></g></g><g id="SvgjsG1146" transform="translate(25,840)"><path id="SvgjsPath1147" d="M 0 0L 454 0L 454 24L 0 24Z" stroke="none" fill="none"></path><g id="SvgjsG1148"><text id="SvgjsText1149" font-family="微软雅黑" text-anchor="start" font-size="13px" width="454px" fill="#323232" font-weight="700" align="middle" anchor="start" family="微软雅黑" size="13px" weight="700" font-style="" opacity="1" y="2.05" transform="rotate(0)"><tspan id="SvgjsTspan1150" dy="16" x="0"><tspan id="SvgjsTspan1151" style="text-decoration:;">⑤上传到指定服务器，通过数据库配置</tspan></tspan></text></g></g><g id="SvgjsG1152" transform="translate(676,553)"><path id="SvgjsPath1153" d="M 0 0L 67 0L 83 16L 83 85L 0 85L 0 0Z" stroke="none" fill-opacity="1" fill="#ffffaa"></path><path id="SvgjsPath1154" d="M 67 0L 67 16L 83 16Z" stroke="none" fill-opacity="1" fill="#cdcdcd"></path><path id="SvgjsPath1155" d="M 0 0L 67 0L 83 16L 83 85L 0 85L 0 0Z" stroke="none" fill="none"></path><g id="SvgjsG1156"><text id="SvgjsText1157" font-family="微软雅黑" text-anchor="middle" font-size="13px" width="63px" fill="#323232" font-weight="400" align="middle" anchor="middle" family="微软雅黑" size="13px" weight="400" font-style="" opacity="1" y="8.55" transform="rotate(0)"><tspan id="SvgjsTspan1158" dy="16" x="41.5"><tspan id="SvgjsTspan1159" style="text-decoration:;">也可以使</tspan></tspan><tspan id="SvgjsTspan1160" dy="16" x="41.5"><tspan id="SvgjsTspan1161" style="text-decoration:;">用soap调</tspan></tspan><tspan id="SvgjsTspan1162" dy="16" x="41.5"><tspan id="SvgjsTspan1163" style="text-decoration:;">用打印平</tspan></tspan><tspan id="SvgjsTspan1164" dy="16" x="41.5"><tspan id="SvgjsTspan1165" style="text-decoration:;">台</tspan></tspan></text></g></g></svg>